# xmcd
#
# Track frame offsets: 
#        150
#        31801
#        49501
#        71627
#        103727
#        120153
#        155629
#        187955
#        218331
#        249906
#        282382
#
# Disc length: 4084 seconds
#
# Revision: 3
# Processed by: cddbd v1.5.2PL0 Copyright (c) Steve Scherf et al.
# Submitted via: ExactAudioCopy v1.0b3
#
DISCID=8b0ff20b
DTITLE=Eddie Higgins Quartet Featuring Scott Hamilton - My Funny Valen
DTITLE=tine
DYEAR=2005
DGENRE=Jazz
TTITLE0=You'd Be So Nice To Come Home To
TTITLE1=I'm A Fool To Want You
TTITLE2=When Sunny Gets Blue
TTITLE3=Alone Together
TTITLE4=My Funny Valentine
TTITLE5=It's All Right With Me
TTITLE6=Stardust
TTITLE7=I Only Have Eyes For You
TTITLE8=Don't Explain
TTITLE9=Slow Boat To China
TTITLE10=Imagination
EXTD=YEAR: 2005
EXTT0=
EXTT1=
EXTT2=
EXTT3=
EXTT4=
EXTT5=
EXTT6=
EXTT7=
EXTT8=
EXTT9=
EXTT10=
PLAYORDER=
